# xmcd
#
# Track frame offsets:
#	150
#	22451
#	49831
#	73691
#	85435
#	99439
#	109833
#	124187
#	138824
#	151282
#	173281
#	194463
#	217535
#	234527
#	257032
#
# Disc length: 3872 seconds
#
# Revision: 1
# Processed by: cddbd v1.4PL0 Copyright (c) Steve Scherf et al.
# Submitted via: audiograbber 1.81.03
#
DISCID=ca0f1e0f
DTITLE=Various Artist - Blues Volume 3
DYEAR=2001
DGENRE=Blues
TTITLE0=All Your Love (John Mayall's Bluesbreakers)
TTITLE1=Life In The Jungle (John Mayall's Bluesbreakers)
TTITLE2=One Life To Live (John Mayall's Bluesbreakers)
TTITLE3=All Your Life (Otis Rush)
TTITLE4=I Can't Quit You Baby (Otis Rush)
TTITLE5=Sit Down Baby (Otis Rush)
TTITLE6=Born To Be No Good (T-Bone Walker)
TTITLE7=I Got A Break Baby (T-Bone Walker)
TTITLE8=West Side Baby (T-Bone Walker)
TTITLE9=Gin House Blues (Nina Simone)
TTITLE10=Mississippi Goddam (live) (Nina Simone)
TTITLE11=Young Gifted And Black (live) (Nina Simone)
TTITLE12=Guess Who (live ) (BB King)
TTITLE13=The Thrill Is Gone (live) (BB King)
TTITLE14=Ain't Nobody Home (live) (BB King)
EXTD=
EXTT0=
EXTT1=
EXTT2=
EXTT3=
EXTT4=
EXTT5=
EXTT6=
EXTT7=
EXTT8=
EXTT9=
EXTT10=
EXTT11=
EXTT12=
EXTT13=
EXTT14=
PLAYORDER=
